<svg width="203" height="53" viewBox="0 0 203 53" fill="none" xmlns="http://www.w3.org/2000/svg">
<rect x="118" y="4" width="83" height="45" rx="5" fill="#57CBF0"/>
<path d="M12.1523 40H6.07812L6.11719 36.1133H12.1523C13.9102 36.1133 15.3815 35.7292 16.5664 34.9609C17.7643 34.1927 18.6628 33.0924 19.2617 31.6602C19.8737 30.2279 20.1797 28.5221 20.1797 26.543V25C20.1797 23.4635 20.0039 22.1029 19.6523 20.918C19.3138 19.7331 18.806 18.737 18.1289 17.9297C17.4648 17.1224 16.6445 16.5104 15.668 16.0938C14.7044 15.6771 13.5911 15.4688 12.3281 15.4688H5.96094V11.5625H12.3281C14.2161 11.5625 15.9414 11.8815 17.5039 12.5195C19.0664 13.1445 20.4141 14.0495 21.5469 15.2344C22.6927 16.4193 23.5716 17.8385 24.1836 19.4922C24.7956 21.1458 25.1016 22.9948 25.1016 25.0391V26.543C25.1016 28.5872 24.7956 30.4362 24.1836 32.0898C23.5716 33.7435 22.6927 35.1628 21.5469 36.3477C20.401 37.5195 19.0339 38.4245 17.4453 39.0625C15.8698 39.6875 14.1055 40 12.1523 40ZM8.79297 11.5625V40H3.89062V11.5625H8.79297ZM41.4688 35.7617V25.6836C41.4688 24.9284 41.332 24.2773 41.0586 23.7305C40.7852 23.1836 40.3685 22.7604 39.8086 22.4609C39.2617 22.1615 38.5716 22.0117 37.7383 22.0117C36.9701 22.0117 36.306 22.1419 35.7461 22.4023C35.1862 22.6628 34.75 23.0143 34.4375 23.457C34.125 23.8997 33.9688 24.401 33.9688 24.9609H29.2812C29.2812 24.1276 29.4831 23.3203 29.8867 22.5391C30.2904 21.7578 30.8763 21.0612 31.6445 20.4492C32.4128 19.8372 33.3307 19.3555 34.3984 19.0039C35.4661 18.6523 36.6641 18.4766 37.9922 18.4766C39.5807 18.4766 40.987 18.7435 42.2109 19.2773C43.4479 19.8112 44.418 20.6185 45.1211 21.6992C45.8372 22.7669 46.1953 24.1081 46.1953 25.7227V35.1172C46.1953 36.0807 46.2604 36.9466 46.3906 37.7148C46.5339 38.4701 46.7357 39.1276 46.9961 39.6875V40H42.1719C41.9505 39.4922 41.7747 38.8477 41.6445 38.0664C41.5273 37.2721 41.4688 36.5039 41.4688 35.7617ZM42.1523 27.1484L42.1914 30.0586H38.8125C37.9401 30.0586 37.1719 30.1432 36.5078 30.3125C35.8438 30.4688 35.2904 30.7031 34.8477 31.0156C34.4049 31.3281 34.0729 31.7057 33.8516 32.1484C33.6302 32.5911 33.5195 33.0924 33.5195 33.6523C33.5195 34.2122 33.6497 34.7266 33.9102 35.1953C34.1706 35.651 34.5482 36.0091 35.043 36.2695C35.5508 36.5299 36.1628 36.6602 36.8789 36.6602C37.8424 36.6602 38.6823 36.4648 39.3984 36.0742C40.1276 35.6706 40.7005 35.1823 41.1172 34.6094C41.5339 34.0234 41.7552 33.4701 41.7812 32.9492L43.3047 35.0391C43.1484 35.5729 42.8815 36.1458 42.5039 36.7578C42.1263 37.3698 41.6315 37.9557 41.0195 38.5156C40.4206 39.0625 39.6979 39.5117 38.8516 39.8633C38.0182 40.2148 37.0547 40.3906 35.9609 40.3906C34.5807 40.3906 33.3503 40.1172 32.2695 39.5703C31.1888 39.0104 30.3424 38.2617 29.7305 37.3242C29.1185 36.3737 28.8125 35.2995 28.8125 34.1016C28.8125 32.9818 29.0208 31.9922 29.4375 31.1328C29.8672 30.2604 30.4922 29.5312 31.3125 28.9453C32.1458 28.3594 33.1615 27.9167 34.3594 27.6172C35.5573 27.3047 36.9245 27.1484 38.4609 27.1484H42.1523ZM55.7852 23.3789V40H51.0781V18.8672H55.5117L55.7852 23.3789ZM54.9453 28.6523L53.4219 28.6328C53.4349 27.1354 53.6432 25.7617 54.0469 24.5117C54.4635 23.2617 55.0365 22.1875 55.7656 21.2891C56.5078 20.3906 57.3932 19.7005 58.4219 19.2188C59.4505 18.724 60.5964 18.4766 61.8594 18.4766C62.875 18.4766 63.793 18.6198 64.6133 18.9062C65.4466 19.1797 66.1562 19.6289 66.7422 20.2539C67.3411 20.8789 67.7969 21.6927 68.1094 22.6953C68.4219 23.6849 68.5781 24.9023 68.5781 26.3477V40H63.8516V26.3281C63.8516 25.3125 63.7018 24.5117 63.4023 23.9258C63.1159 23.3268 62.6927 22.9036 62.1328 22.6562C61.5859 22.3958 60.9023 22.2656 60.082 22.2656C59.2747 22.2656 58.5521 22.4349 57.9141 22.7734C57.276 23.112 56.7357 23.5742 56.293 24.1602C55.8633 24.7461 55.5312 25.4232 55.2969 26.1914C55.0625 26.9596 54.9453 27.7799 54.9453 28.6523ZM78.0508 23.3789V40H73.3438V18.8672H77.7773L78.0508 23.3789ZM77.2109 28.6523L75.6875 28.6328C75.7005 27.1354 75.9089 25.7617 76.3125 24.5117C76.7292 23.2617 77.3021 22.1875 78.0312 21.2891C78.7734 20.3906 79.6589 19.7005 80.6875 19.2188C81.7161 18.724 82.862 18.4766 84.125 18.4766C85.1406 18.4766 86.0586 18.6198 86.8789 18.9062C87.7122 19.1797 88.4219 19.6289 89.0078 20.2539C89.6068 20.8789 90.0625 21.6927 90.375 22.6953C90.6875 23.6849 90.8438 24.9023 90.8438 26.3477V40H86.1172V26.3281C86.1172 25.3125 85.9674 24.5117 85.668 23.9258C85.3815 23.3268 84.9583 22.9036 84.3984 22.6562C83.8516 22.3958 83.168 22.2656 82.3477 22.2656C81.5404 22.2656 80.8177 22.4349 80.1797 22.7734C79.5417 23.112 79.0013 23.5742 78.5586 24.1602C78.1289 24.7461 77.7969 25.4232 77.5625 26.1914C77.3281 26.9596 77.2109 27.7799 77.2109 28.6523ZM101.781 37.6953L107.523 18.8672H112.562L104.086 43.2227C103.891 43.7435 103.637 44.3099 103.324 44.9219C103.012 45.5339 102.602 46.1133 102.094 46.6602C101.599 47.2201 100.98 47.6693 100.238 48.0078C99.4961 48.3594 98.5977 48.5352 97.543 48.5352C97.1263 48.5352 96.7227 48.4961 96.332 48.418C95.9544 48.3529 95.5964 48.2812 95.2578 48.2031L95.2383 44.6094C95.3685 44.6224 95.5247 44.6354 95.707 44.6484C95.9023 44.6615 96.0586 44.668 96.1758 44.668C96.957 44.668 97.6081 44.5703 98.1289 44.375C98.6497 44.1927 99.0729 43.8932 99.3984 43.4766C99.737 43.0599 100.023 42.5 100.258 41.7969L101.781 37.6953ZM98.5391 18.8672L103.559 34.6875L104.398 39.6484L101.137 40.4883L93.4609 18.8672H98.5391Z" fill="#323232"/>
<path d="M136.152 40H130.078L130.117 36.1133H136.152C137.91 36.1133 139.382 35.7292 140.566 34.9609C141.764 34.1927 142.663 33.0924 143.262 31.6602C143.874 30.2279 144.18 28.5221 144.18 26.543V25C144.18 23.4635 144.004 22.1029 143.652 20.918C143.314 19.7331 142.806 18.737 142.129 17.9297C141.465 17.1224 140.645 16.5104 139.668 16.0938C138.704 15.6771 137.591 15.4688 136.328 15.4688H129.961V11.5625H136.328C138.216 11.5625 139.941 11.8815 141.504 12.5195C143.066 13.1445 144.414 14.0495 145.547 15.2344C146.693 16.4193 147.572 17.8385 148.184 19.4922C148.796 21.1458 149.102 22.9948 149.102 25.0391V26.543C149.102 28.5872 148.796 30.4362 148.184 32.0898C147.572 33.7435 146.693 35.1628 145.547 36.3477C144.401 37.5195 143.034 38.4245 141.445 39.0625C139.87 39.6875 138.105 40 136.152 40ZM132.793 11.5625V40H127.891V11.5625H132.793ZM162.871 40.3906C161.309 40.3906 159.896 40.1367 158.633 39.6289C157.383 39.1081 156.315 38.3854 155.43 37.4609C154.557 36.5365 153.887 35.4492 153.418 34.1992C152.949 32.9492 152.715 31.6016 152.715 30.1562V29.375C152.715 27.7214 152.956 26.224 153.438 24.8828C153.919 23.5417 154.59 22.3958 155.449 21.4453C156.309 20.4818 157.324 19.7461 158.496 19.2383C159.668 18.7305 160.938 18.4766 162.305 18.4766C163.815 18.4766 165.137 18.7305 166.27 19.2383C167.402 19.7461 168.34 20.4622 169.082 21.3867C169.837 22.2982 170.397 23.3854 170.762 24.6484C171.139 25.9115 171.328 27.3047 171.328 28.8281V30.8398H155V27.4609H166.68V27.0898C166.654 26.2435 166.484 25.4492 166.172 24.707C165.872 23.9648 165.41 23.3659 164.785 22.9102C164.16 22.4544 163.327 22.2266 162.285 22.2266C161.504 22.2266 160.807 22.3958 160.195 22.7344C159.596 23.0599 159.095 23.5352 158.691 24.1602C158.288 24.7852 157.975 25.5404 157.754 26.4258C157.546 27.2982 157.441 28.2812 157.441 29.375V30.1562C157.441 31.0807 157.565 31.9401 157.812 32.7344C158.073 33.5156 158.451 34.1992 158.945 34.7852C159.44 35.3711 160.039 35.8333 160.742 36.1719C161.445 36.4974 162.246 36.6602 163.145 36.6602C164.277 36.6602 165.286 36.4323 166.172 35.9766C167.057 35.5208 167.826 34.8763 168.477 34.043L170.957 36.4453C170.501 37.1094 169.909 37.7474 169.18 38.3594C168.451 38.9583 167.559 39.4466 166.504 39.8242C165.462 40.2018 164.251 40.3906 162.871 40.3906ZM181.602 36.2695L186.777 18.8672H191.66L184.316 40H181.27L181.602 36.2695ZM177.637 18.8672L182.91 36.3477L183.164 40H180.117L172.734 18.8672H177.637Z" fill="white"/>
</svg>
